<?xml version="1.0" encoding="UTF-8"?>
<svg width="128" height="128" viewBox="0 0 128 128" fill="none" xmlns="http://www.w3.org/2000/svg">
  <defs>
    <filter id="base_shadow" x="0" y="0" width="128" height="128" filterUnits="userSpaceOnUse" color-interpolation-filters="sRGB">
      <feDropShadow dx="0" dy="4" stdDeviation="6" flood-color="#000000" flood-opacity="0.15"/>
    </filter>
    <filter id="icon_depth" x="0" y="0" width="128" height="128" filterUnits="userSpaceOnUse">
      <feOffset dy="1.5"/>
      <feGaussianBlur stdDeviation="1.5"/>
      <feColorMatrix type="matrix" values="0 0 0 0 0 0 0 0 0 0 0 0 0 0 0 0 0 0 0.1 0"/>
      <feBlend mode="normal" in="SourceGraphic"/>
    </filter>
  </defs>

  <g filter="url(#base_shadow)">
    <rect x="14" y="14" width="100" height="100" rx="22" fill="#FFFFFF"/>
    <rect x="14.5" y="14.5" width="99" height="99" rx="21.5" stroke="#E5E7EB" stroke-width="0.5"/>
  </g>

  <g filter="url(#icon_depth)">
    <g transform="translate(64 64) scale(2.3) translate(-18 -18)">
      <g fill="#3B82F6">
        <rect x="0" y="12" width="36" height="12" rx="6"/>
        <rect x="0" y="12" width="36" height="12" rx="6" transform="rotate(45 18 18)"/>
        <rect x="0" y="12" width="36" height="12" rx="6" transform="rotate(90 18 18)"/>
        <rect x="0" y="12" width="36" height="12" rx="6" transform="rotate(135 18 18)"/>
        <rect x="0" y="12" width="36" height="12" rx="6" transform="rotate(180 18 18)"/>
        <rect x="0" y="12" width="36" height="12" rx="6" transform="rotate(225 18 18)"/>
      </g>
      <circle cx="18" cy="18" r="5" fill="#FCD34D"/>
    </g>
  </g>
</svg>
